PathFileType	4	(X/Y/Z)	C:/Users/opensim2020/Desktop/walking_exp_matlab/subject02_walking08_straight_01.trc	
DataRate	CameraRate	NumFrames	NumMarkers	Units	OrigDataRate	OrigDataStartFrame	OrigNumFrames	
100.00	100.00	5	41	mm	100.00	559	324	
Frame#	Time	LFHD			RFHD			LBHD			RBHD			C7			T10			CLAV			STRN			RBAK			LSHO			LUPA			LELB			LFRM			LWRA			LWRB			LFIN			RSHO			RUPA			RELB			RFRM			RWRA			RWRB			RFIN			LASI			RASI			LPSI			RPSI			LTHI			LKNE			LTIB			LANK			LHEE			LTOE			RTHI			RKNE			RTIB			RANK			RHEE			RTOE			*39			*40			
		X1	Y1	Z1	X2	Y2	Z2	X3	Y3	Z3	X4	Y4	Z4	X5	Y5	Z5	X6	Y6	Z6	X7	Y7	Z7	X8	Y8	Z8	X9	Y9	Z9	X10	Y10	Z10	X11	Y11	Z11	X12	Y12	Z12	X13	Y13	Z13	X14	Y14	Z14	X15	Y15	Z15	X16	Y16	Z16	X17	Y17	Z17	X18	Y18	Z18	X19	Y19	Z19	X20	Y20	Z20	X21	Y21	Z21	X22	Y22	Z22	X23	Y23	Z23	X24	Y24	Z24	X25	Y25	Z25	X26	Y26	Z26	X27	Y27	Z27	X28	Y28	Z28	X29	Y29	Z29	X30	Y30	Z30	X31	Y31	Z31	X32	Y32	Z32	X33	Y33	Z33	X34	Y34	Z34	X35	Y35	Z35	X36	Y36	Z36	X37	Y37	Z37	X38	Y38	Z38	X39	Y39	Z39	X40	Y40	Z40	X41	Y41	Z41	

1	0.000	-974.58368	-1243.83594	1738.30444	-831.07990	-1254.46655	1705.37170	-1002.40973	-1358.33411	1647.77087	-865.59631	-1384.23523	1611.60779	-942.11627	-1412.28320	1513.15479	-940.37189	-1478.08826	1239.63086	-958.68622	-1278.82837	1439.41016	-965.04309	-1236.01880	1264.09534	-883.84912	-1477.26501	1339.36218	-1126.29956	-1342.13599	1492.93372	-1213.79895	-1343.85217	1293.07520	-1219.83777	-1330.27014	1147.78625	-1215.09253	-1284.96411	1021.76788	-1148.91809	-1211.14331	919.73730	-1197.24719	-1239.71240	907.66937	-1179.40015	-1208.88098	849.43475	-760.00299	-1329.44019	1461.86072	-683.46594	-1373.25989	1271.81384	-669.95624	-1373.70667	1125.19934	-652.47906	-1352.05591	1006.79651	-673.99561	-1308.78601	878.19525	-642.67194	-1356.79944	876.62378	-641.90894	-1322.64148	811.42957	-1099.37463	-1282.53247	965.40778	-849.89459	-1234.23315	968.34131	-985.75946	-1472.02063	1018.70911	-870.93738	-1456.91455	1021.87335	-1143.31677	-1410.73877	663.12738	-1119.57434	-1467.95227	477.17041	-1090.17358	-1606.71765	346.00137	-1052.01270	-1709.26404	148.02618	-989.29852	-1729.05200	138.47949	-1104.69214	-1619.46472	28.20384	-774.40460	-1249.53101	669.31177	-822.73633	-1219.55188	463.89542	-812.67798	-1242.79346	276.11008	-848.20911	-1254.54736	84.47549	-900.59607	-1294.49573	30.72770	-854.37207	-1101.03906	33.24483	-888.28400	-1360.48877	1779.15759	-3360.43921	2845.24463	1033.93884 
2	0.010	-973.01465	-1238.63281	1739.56335	-829.52051	-1249.27466	1706.95837	-1000.75391	-1352.86633	1648.68066	-863.91602	-1378.57190	1612.61035	-940.50037	-1406.32959	1514.01843	-938.25867	-1471.22473	1240.22156	-956.82477	-1272.62842	1440.75134	-962.37701	-1229.17065	1265.44800	-882.04480	-1470.60388	1339.68298	-1124.49133	-1336.27844	1494.08228	-1211.75732	-1337.74927	1294.10132	-1216.39575	-1322.30310	1148.27808	-1211.87085	-1276.48999	1023.06940	-1143.90784	-1202.32788	922.36261	-1192.41382	-1230.04346	909.72021	-1173.52405	-1199.16284	851.63007	-758.35370	-1324.20020	1463.48706	-681.43958	-1366.79492	1273.34375	-668.01019	-1366.33301	1126.69324	-650.78290	-1344.78442	1008.30359	-672.46429	-1302.12830	879.71936	-640.76062	-1349.73059	878.16980	-640.26392	-1315.80090	812.78992	-1096.98499	-1275.62952	967.03290	-847.92865	-1226.96045	968.62604	-983.80280	-1464.99658	1019.71899	-868.87183	-1449.40320	1023.14417	-1143.67297	-1400.53674	663.37726	-1121.79248	-1454.94189	477.57895	-1092.46387	-1594.92969	348.60144	-1053.67126	-1701.16614	153.17497	-990.09210	-1720.94470	143.87343	-1104.37158	-1615.91602	30.49880	-772.66852	-1244.66943	669.66980	-821.29645	-1217.10291	463.56143	-811.70258	-1241.39612	275.87836	-847.98730	-1254.39026	84.38765	-900.49524	-1294.49768	30.65992	-854.20544	-1101.11316	33.12846	-886.96332	-1355.38171	1780.33411	-3360.42578	2845.24976	1033.91626 
3	0.020	-974.13477	-1234.77527	1741.04382	-828.13922	-1244.01868	1708.04773	-999.12103	-1347.42798	1649.44482	-862.25098	-1373.07642	1613.55359	-938.89160	-1400.46851	1514.82947	-936.07422	-1464.53467	1240.79712	-955.11261	-1266.53186	1442.08936	-960.52264	-1222.46423	1266.90845	-880.21124	-1464.16528	1340.27161	-1122.64136	-1330.62634	1495.14575	-1209.51221	-1331.64734	1294.95203	-1213.80176	-1314.94946	1148.88562	-1208.62573	-1268.16162	1024.55237	-1138.56494	-1194.11121	925.01984	-1188.37634	-1220.57483	911.78961	-1168.18030	-1189.41016	853.79608	-756.70044	-1317.59802	1465.01904	-679.51691	-1360.19751	1274.78345	-666.21918	-1358.72705	1128.03186	-648.99103	-1337.34778	1009.84167	-670.75354	-1294.71289	880.91681	-638.81360	-1342.39429	879.57355	-638.55963	-1308.52576	814.10486	-1094.79089	-1267.68872	968.60822	-846.20068	-1219.82056	968.94928	-981.88660	-1458.10852	1020.68579	-866.85828	-1442.23511	1024.49561	-1144.08801	-1390.10571	663.36243	-1123.98877	-1441.64197	477.45267	-1094.74829	-1582.73279	350.89874	-1054.68750	-1692.57178	157.86610	-991.25177	-1712.26904	149.27914	-1105.96765	-1610.09302	34.01503	-770.90753	-1239.81616	669.93109	-819.82568	-1215.11536	463.27383	-810.58636	-1240.34509	275.76306	-847.71082	-1254.38098	84.32818	-900.42798	-1294.52563	30.55721	-854.00641	-1101.21753	33.05035	-885.64136	-1350.41479	1781.32263	-3360.26294	2845.15063	1034.07581 
4	0.030	-970.56769	-1228.62573	1741.94543	-826.60046	-1239.04602	1709.36621	-997.59119	-1342.03003	1650.08777	-860.67761	-1367.61963	1614.36584	-937.29095	-1394.64990	1515.59521	-933.96063	-1457.99902	1241.37952	-953.35065	-1260.51807	1443.16467	-958.67676	-1215.82983	1268.17114	-878.40485	-1457.96399	1341.12341	-1120.89832	-1325.01563	1496.09033	-1207.37158	-1325.51453	1295.76611	-1213.03674	-1309.46680	1150.61194	-1205.16711	-1260.05005	1026.24817	-1134.42993	-1185.26770	927.65558	-1184.07385	-1211.21704	913.90747	-1163.40112	-1179.71802	856.22034	-755.21301	-1312.04956	1466.25867	-677.53424	-1353.59912	1276.03687	-664.38831	-1351.32788	1129.26904	-647.20544	-1329.87305	1011.06531	-669.06061	-1287.45618	882.04987	-636.81116	-1334.75708	880.93109	-636.76788	-1300.97888	815.39294	-1093.09729	-1260.75940	970.11041	-844.70624	-1213.05640	969.37274	-980.07086	-1451.37720	1021.46832	-865.08325	-1435.30591	1025.73523	-1144.60791	-1379.57166	663.12708	-1126.09094	-1428.37024	477.41824	-1096.98572	-1570.46716	353.00900	-1055.60754	-1683.32751	162.12358	-992.10443	-1702.98413	153.20605	-1108.70862	-1602.00879	38.91857	-769.19525	-1235.74915	670.12921	-818.37250	-1213.33972	462.98404	-809.77240	-1239.72473	275.59830	-847.41083	-1254.45520	84.25813	-900.27551	-1294.68933	30.56362	-853.79974	-1101.39307	32.99932	-884.36383	-1345.58667	1782.15491	-3360.09229	2845.08447	1033.91418 
5	0.040	-969.10004	-1223.60608	1743.15051	-825.17291	-1234.00220	1710.78076	-996.11041	-1336.66797	1650.73718	-859.05310	-1362.19324	1615.45935	-935.74243	-1388.89380	1516.29504	-931.95551	-1451.52600	1242.06982	-951.77802	-1254.69031	1444.21545	-956.96606	-1209.73010	1269.25464	-876.56091	-1451.71204	1341.89832	-1119.40125	-1319.44336	1497.10144	-1203.18652	-1318.06909	1295.53687	-1211.36255	-1302.59985	1151.37891	-1202.35681	-1251.91406	1027.63721	-1130.56250	-1176.54553	930.05786	-1180.36975	-1202.06982	916.02246	-1159.32349	-1170.04297	858.80231	-753.69922	-1305.97400	1467.57556	-675.69763	-1346.86780	1277.24536	-662.54248	-1344.11670	1130.46729	-645.40021	-1322.17822	1012.28558	-667.40973	-1279.60596	883.34686	-634.82581	-1326.91455	882.10437	-634.86652	-1293.26392	816.55273	-1091.85583	-1255.95605	971.10785	-843.42621	-1206.51050	969.89014	-978.31268	-1444.69922	1022.08881	-863.31299	-1428.75049	1026.94763	-1145.24109	-1369.13147	663.23499	-1128.03345	-1415.01917	477.54761	-1098.44568	-1558.09729	355.10767	-1056.53772	-1672.62939	165.80495	-992.95825	-1693.13232	156.24722	-1111.77600	-1591.55762	44.08686	-767.68860	-1231.07910	670.48096	-816.71863	-1212.40430	463.23218	-809.00140	-1239.24805	275.41971	-847.11292	-1254.66052	84.22677	-900.17761	-1294.84436	30.44689	-853.63208	-1101.67712	32.97785	-883.13062	-1340.87097	1783.00940	-3357.30542	2845.97485	1033.99573 
